PathFileType	4	(X/Y/Z)	C:\Users\WrightLab\Desktop\Jo\P5V19.trc
DataRate	CameraRate	NumFrames	NumMarkers	Units	OrigDataRate	OrigDataStartFrame	OrigNumFrames
100.00	100.00	       18	19	mm	100.00	265	       705
Frame#	Time	Headset_Front			Headset_Back			Headset_Left			Headset_Right			Left_Shoulder			Right_Shoulder			Sternum			C7			Left Elbow			Right Elbow			Left Wrist			Right Wrist			Left ASIS			Right ASIS			S2			Left Knee			Right Knee			Left Ankle			Right Ankle			
		X1	Y1	Z1	X2	Y2	Z2	X3	Y3	Z3	X4	Y4	Z4	X5	Y5	Z5	X6	Y6	Z6	X7	Y7	Z7	X8	Y8	Z8	X9	Y9	Z9	X10	Y10	Z10	X11	Y11	Z11	X12	Y12	Z12	X13	Y13	Z13	X14	Y14	Z14	X15	Y15	Z15	X16	Y16	Z16	X17	Y17	Z17	X18	Y18	Z18	X19	Y19	Z19	

265	2.640	247.75372	1564.11707	145.26942	446.11288	1519.85364	-165.01086							597.71637	1510.91248	25.50354	220.70427	1445.68896	-132.77657	365.80228	1333.00269	42.48384	206.70493	1612.28442	8.59922	721.93561	1251.70386	27.76101	193.83907	1180.51196	-256.90851	636.68115	1129.45886	205.22749	124.23776	989.76880	-106.56834	507.46924	952.06885	116.98274	267.72412	949.59229	-34.40838	574.96332	982.93573	-214.23701	600.73383	518.44354	126.44033	299.79474	491.97498	-0.59579	651.84705	108.41232	46.98340	434.39822	249.00067	-282.84604	
266	2.650	243.53192	1565.39172	150.06395	445.95407	1521.88928	-156.87001							594.04297	1512.57300	36.66612	219.65761	1448.38318	-129.72197	360.75623	1334.25549	48.26570	203.34433	1614.24011	13.27055	717.93634	1253.36401	38.59059	196.13922	1182.65930	-254.13562	629.48474	1131.10742	215.27808	122.60892	992.60486	-107.07735	500.91141	953.69653	124.86302	264.74127	951.50342	-32.07064	575.99878	984.87622	-203.68651	599.62952	519.82935	133.03754	288.86026	493.29883	16.68692	651.25330	108.94301	48.13895	434.39658	253.02147	-267.35159	
267	2.660	238.32980	1566.65015	155.23975	444.91257	1524.10828	-149.16362							589.47699	1514.59351	47.90910	218.44048	1449.96692	-126.64579	355.70120	1336.13904	53.57901	199.99295	1615.97583	17.88430	713.60236	1253.97974	50.43391	198.05328	1184.90991	-251.73228	622.39545	1132.52551	225.06215	122.25669	994.12329	-105.87508	494.92093	955.88049	131.97847	261.62527	953.67999	-29.51735	577.12262	986.78418	-192.77521	598.88239	521.11346	139.49767	277.12000	498.54794	31.76184	650.86572	109.83853	48.66761	434.71774	255.46825	-252.97552	
268	2.670	232.66330	1568.09668	159.95465	444.60764	1526.00854	-141.71364							584.92621	1515.88269	58.43356	217.20712	1452.01208	-123.26717	351.55951	1337.32373	58.54206	196.50478	1617.20557	22.21543	708.67438	1255.81409	62.67755	199.58034	1186.48694	-248.80505	614.61737	1133.85547	235.35808	121.59483	996.40656	-104.80485	490.54395	956.57996	138.76230	258.36520	955.99689	-27.03443	577.34814	988.49493	-181.99280	597.63904	522.23645	146.59972	266.79568	505.94455	43.87185	650.58661	110.17236	49.17426	433.52893	257.34674	-236.75623	
269	2.680	227.65167	1568.90100	164.92096	443.86731	1527.71777	-133.44804							580.66125	1517.38110	69.51818	216.28816	1453.56824	-120.37788	347.26212	1338.42773	63.75518	193.16997	1618.23608	26.67938	703.70239	1256.87585	74.42796	200.76131	1188.45007	-246.35098	607.13354	1135.28833	245.35709	121.41398	997.89270	-104.25087	484.24924	958.08215	145.65291	255.13158	957.41974	-24.05841	576.91614	990.07642	-170.76642	596.17877	522.71393	152.82956	256.17337	513.83191	53.81377	650.50604	110.82420	49.36281	431.95404	258.75955	-221.97406	
270	2.690	222.08051	1569.76831	170.09207	442.88367	1529.12744	-126.21053							575.32629	1518.74341	79.88306	215.23087	1455.06775	-117.00868	342.28006	1339.25232	69.27906	189.52861	1619.17725	31.05216	698.63306	1257.84680	86.83405	201.81851	1190.11719	-243.73514	599.07642	1136.14368	255.20538	120.04672	999.72357	-105.12643	478.17975	959.47241	152.88582	252.34998	958.42560	-21.33940	576.25659	991.12689	-159.43773	592.73285	523.31451	158.84407	246.27473	521.99664	62.61769	650.34943	111.59708	49.91348	429.26834	258.89413	-206.22644	
271	2.700	217.27103	1570.46619	174.94562	441.71771	1530.33459	-117.92609							570.61212	1519.68152	91.13831	214.38332	1456.27002	-113.49953	337.91278	1339.83313	74.24647	185.76868	1620.30042	35.51299	694.22534	1258.70581	98.01543	202.57800	1191.88818	-241.44214	591.14911	1136.70056	264.72809	119.86481	1001.42865	-102.13458	472.62991	960.10846	159.22124	249.59830	959.50830	-18.99081	575.20923	992.21130	-148.71700	588.03125	524.81964	165.07787	236.94290	529.22919	70.72622	649.91394	112.42339	51.42607	426.58054	257.52322	-189.78679	
272	2.710	211.63206	1571.41772	179.42538	440.55414	1531.52441	-111.17541							564.51093	1519.97485	100.54263	212.85564	1457.29822	-110.22428	333.21198	1340.93579	79.32822	181.92924	1621.51746	40.11536	688.01782	1259.68555	110.80935	203.64403	1193.15295	-239.32463	582.82166	1137.46594	275.18448	119.43533	1002.45374	-101.61970	467.12756	960.23157	165.61217	247.02235	959.98053	-16.61593	573.10858	993.06219	-137.69228	581.76593	524.94946	171.23451	227.63426	535.50916	78.34567	650.64618	113.14661	52.24080	422.78568	255.51993	-174.51003	
273	2.720	205.93346	1572.49365	184.49393	438.87186	1532.53296	-103.95814							559.58185	1520.32910	109.26292	211.80852	1457.95007	-107.07261	329.19360	1341.26428	84.01007	177.95313	1622.52563	44.64196	682.76526	1260.59705	121.53809	204.03300	1194.62268	-237.52541	574.84058	1137.31824	284.89578	118.42026	1003.45905	-100.49417	461.86533	960.60669	171.47165	244.65898	960.15375	-13.69291	570.71240	993.94391	-126.46894	575.19904	525.69019	176.79163	219.04208	540.76044	85.83840	650.73987	113.58704	52.62648	418.20456	252.56441	-158.10477	
274	2.730	200.59856	1572.56604	189.68364	437.44485	1533.64099	-95.93487							553.67871	1520.95825	118.93930	210.50278	1458.21301	-104.01411	324.44690	1341.43567	89.25035	173.90562	1623.32288	49.14143	676.45166	1260.75916	134.54976	204.16586	1195.40088	-234.91141	566.58356	1137.16772	294.98248	117.52114	1004.64417	-99.58219	456.65350	959.88177	176.99992	242.15074	960.40051	-11.05108	568.92773	994.62280	-116.56764	567.17047	525.43195	181.70975	210.75949	545.34570	93.65656	650.03094	113.68978	53.40218	412.91010	249.42462	-143.24359	
275	2.740	195.41518	1572.64697	194.55182	435.80203	1534.45081	-88.20726							547.28918	1521.48206	128.72913	209.05550	1458.62646	-100.88037	320.35077	1341.19495	93.69749	169.91983	1623.70020	53.58918	671.26282	1260.69897	145.91560	205.20779	1196.61890	-232.51254	558.51300	1137.04297	304.73209	116.28987	1005.52637	-98.86842	450.28693	959.43414	183.06699	239.51927	960.57202	-8.65153	565.82214	995.50421	-106.18351	556.99652	525.96906	186.07608	203.01915	550.03674	99.95455	649.65979	114.80754	54.49223	407.46680	244.14917	-125.57047	
276	2.750	189.72945	1572.93738	198.86993	433.90588	1535.21362	-81.77557							541.79736	1521.86621	138.34810	207.47792	1459.04944	-97.79441	315.44205	1341.61755	98.60699	165.90042	1623.97485	58.03063	664.14197	1261.27258	157.96727	205.70566	1197.25806	-230.13309	548.59460	1136.51746	313.85254	114.89436	1005.91547	-97.73105	444.47894	958.78345	188.60086	235.21054	961.70813	-5.55886	561.62842	995.66510	-95.90910	547.80054	525.85547	190.59193	195.00130	554.46600	104.90817	650.25659	115.98695	54.86780	401.13605	239.00977	-109.13585	
277	2.760	184.70911	1572.82153	203.35922	431.68704	1535.69238	-74.01347							534.77563	1521.31946	147.53146	205.73308	1459.39612	-94.62908	310.58041	1341.48145	102.76477	161.73534	1624.21753	62.47676	657.44586	1261.40613	169.47670	205.47751	1198.13928	-227.51721	539.34204	1136.32520	323.45801	113.48166	1006.28241	-96.68998	439.05096	957.72980	193.43977	232.04701	962.27856	-3.02494	558.08734	996.13428	-85.81310	538.71796	525.43011	194.29269	187.22229	558.24622	109.26725	650.11896	116.22673	55.18640	393.93759	233.16586	-91.64063	
278	2.770	179.17130	1572.63464	208.09648	429.31882	1536.30151	-67.21982							529.11884	1521.94873	156.36462	203.74820	1459.90625	-91.67057	305.32104	1341.31958	107.46531	157.41673	1624.52759	66.96196	650.18073	1261.56116	181.55066	205.58621	1198.64648	-224.39093	530.52759	1135.54285	333.16724	111.54234	1006.53564	-95.75968	433.43848	956.63550	198.50154	228.59872	962.53436	-0.40499	554.05945	996.43048	-76.31543	530.77393	524.96912	197.29189	179.65970	561.42981	112.93983	649.88745	117.09525	55.49189	385.96991	227.74228	-76.63942	
279	2.780	173.53464	1572.53137	212.98296	426.55826	1536.35583	-60.07837							522.56763	1521.54968	166.09526	201.47461	1460.30920	-88.26614	300.00531	1341.24451	112.30353	152.89700	1624.82544	71.53593	643.72443	1261.93408	193.80519	205.03348	1199.54553	-221.87746	520.91473	1134.35327	342.04239	109.85697	1006.63037	-94.80331	426.06213	955.79108	203.93742	226.23460	961.41071	1.57439	550.59607	996.52753	-67.11309	522.57971	524.22217	200.38959	173.03844	564.24158	117.25861	649.69611	118.09279	56.01637	377.70758	220.36238	-59.10910	
280	2.790	168.55722	1572.08240	217.13760	423.93695	1535.84961	-52.13091							516.48285	1521.32959	173.96941	199.40881	1460.47693	-85.21619	294.36160	1340.69495	116.36647				636.57544	1261.42847	204.76158	204.87891	1199.84070	-219.27925	511.27997	1133.86426	351.36298	108.18066	1006.47675	-93.90205	420.03525	954.63226	209.29482	222.91446	961.53394	4.35753	546.96423	996.93372	-59.08860	514.48138	523.68109	203.52115	165.84390	566.92249	121.32294	649.28967	118.86023	56.91338	367.86087	213.56265	-42.02674	
281	2.800	162.67632	1571.95715	221.52200	420.36746	1535.44592	-46.43853							509.66571	1520.90564	182.57942	196.92056	1460.65430	-81.79993	288.16733	1340.83020	119.86628				628.90887	1261.47888	216.50760	203.69997	1200.40967	-216.26483	501.47272	1133.26501	360.16058	105.73799	1006.49915	-92.45620	413.73581	953.36078	213.83672	219.39081	961.43390	6.95013	543.61664	997.09692	-50.83474	506.71930	522.39404	206.43605	159.54028	569.10602	125.26610	648.91864	119.30991	57.37464	357.97046	206.61409	-26.27455	
282	2.810	157.71425	1570.99561	226.09798	416.35272	1535.36719	-40.54955							502.57767	1520.64160	190.96584	194.32932	1461.00977	-78.76684	282.87952	1339.95996	125.61709				621.66248	1261.43457	227.36307	203.29526	1200.56689	-213.40952	491.90521	1132.32361	368.70108	103.71863	1006.00964	-91.93613	406.99774	952.40942	218.83780	215.27208	961.38354	9.65391	539.68915	997.05560	-43.02733	499.67487	521.25250	209.48802	152.94350	571.34430	128.72316	648.43658	120.08476	57.70903	347.24081	198.53117	-8.87587	
